<svg xmlns="http://www.w3.org/2000/svg" xmlns:xlink="http://www.w3.org/1999/xlink" width="3840" zoomAndPan="magnify" viewBox="0 0 2880 2879.999992" height="3840" preserveAspectRatio="xMidYMid meet" version="1.0"><defs><g/></defs><g fill="#000000" fill-opacity="1"><g transform="translate(288.002012, 1791.336117)"><g><path d="M -209.375 180.078125 C -212.226562 178.453125 -213.65625 176.007812 -213.65625 172.75 C -213.65625 169.90625 -213.039062 166.957031 -211.8125 163.90625 C -210.59375 160.851562 -209.578125 158.101562 -208.765625 155.65625 L -175.1875 76.90625 C -118.625 -55.34375 -58.804688 -185.765625 4.265625 -314.359375 C 67.347656 -442.960938 132.460938 -570.546875 199.609375 -697.109375 C 230.941406 -755.710938 262.378906 -814.109375 293.921875 -872.296875 C 325.460938 -930.492188 356.695312 -988.894531 387.625 -1047.5 C 401.863281 -1074.351562 416.101562 -1101.3125 430.34375 -1128.375 C 444.59375 -1155.4375 460.46875 -1181.378906 477.96875 -1206.203125 C 479.59375 -1208.234375 481.117188 -1210.46875 482.546875 -1212.90625 C 483.972656 -1215.351562 485.703125 -1217.597656 487.734375 -1219.640625 C 492.210938 -1224.109375 496.28125 -1224.921875 499.9375 -1222.078125 C 503.195312 -1219.628906 504.828125 -1216.78125 504.828125 -1213.53125 C 504.828125 -1211.90625 504.519531 -1210.070312 503.90625 -1208.03125 C 503.300781 -1206 502.585938 -1204.171875 501.765625 -1202.546875 L 491.390625 -1182.40625 C 474.703125 -1150.25 457.300781 -1118.398438 439.1875 -1086.859375 C 421.082031 -1055.328125 403.488281 -1023.28125 386.40625 -990.71875 C 379.894531 -978.507812 373.378906 -966.300781 366.859375 -954.09375 C 360.347656 -941.882812 354.242188 -929.878906 348.546875 -918.078125 C 349.773438 -914.015625 350.390625 -910.148438 350.390625 -906.484375 C 350.390625 -890.203125 340.617188 -882.0625 321.078125 -882.0625 C 319.046875 -879.21875 313.957031 -870.570312 305.8125 -856.125 C 297.675781 -841.675781 287.398438 -822.953125 274.984375 -799.953125 C 262.578125 -776.960938 248.84375 -751.425781 233.78125 -723.34375 C 218.726562 -695.269531 203.265625 -666.070312 187.390625 -635.75 C 171.523438 -605.4375 155.960938 -575.734375 140.703125 -546.640625 C 125.441406 -517.546875 111.300781 -490.582031 98.28125 -465.75 C 62.46875 -396.164062 27.773438 -325.863281 -5.796875 -254.84375 C -39.367188 -183.832031 -71.820312 -112.519531 -103.15625 -40.90625 C -101.125 -42.9375 -99.394531 -45.070312 -97.96875 -47.3125 C -96.550781 -49.550781 -95.023438 -51.890625 -93.390625 -54.328125 C -75.078125 -83.628906 -58.390625 -113.84375 -43.328125 -144.96875 C -28.273438 -176.101562 -12.410156 -206.523438 4.265625 -236.234375 C 39.265625 -298.898438 75.890625 -360.144531 114.140625 -419.96875 C 152.398438 -479.789062 193.097656 -538.191406 236.234375 -595.171875 C 268.785156 -637.898438 302.5625 -679.609375 337.5625 -720.296875 C 372.5625 -760.992188 409.1875 -800.0625 447.4375 -837.5 C 482.4375 -871.28125 518.554688 -903.429688 555.796875 -933.953125 C 593.035156 -964.472656 632.40625 -992.347656 673.90625 -1017.578125 C 695.476562 -1030.597656 717.660156 -1042.804688 740.453125 -1054.203125 C 763.242188 -1065.597656 786.847656 -1075.570312 811.265625 -1084.125 C 829.578125 -1090.632812 848.394531 -1095.71875 867.71875 -1099.375 C 887.050781 -1103.039062 906.6875 -1104.875 926.625 -1104.875 C 938.019531 -1104.875 949.414062 -1104.160156 960.8125 -1102.734375 C 972.207031 -1101.304688 983.601562 -1098.5625 995 -1094.5 C 1033.25 -1081.070312 1061.125 -1055.632812 1078.625 -1018.1875 C 1081.882812 -1010.863281 1084.328125 -1003.335938 1085.953125 -995.609375 C 1087.578125 -987.878906 1088.796875 -979.941406 1089.609375 -971.796875 C 1090.015625 -969.359375 1090.21875 -966.816406 1090.21875 -964.171875 C 1090.21875 -961.523438 1090.21875 -958.78125 1090.21875 -955.9375 C 1090.21875 -938.84375 1088.488281 -922.253906 1085.03125 -906.171875 C 1081.570312 -890.097656 1076.585938 -873.925781 1070.078125 -857.65625 C 1062.753906 -838.9375 1053.898438 -820.925781 1043.515625 -803.625 C 1033.140625 -786.332031 1022.054688 -769.34375 1010.265625 -752.65625 C 992.359375 -727.019531 972.617188 -702.804688 951.046875 -680.015625 C 929.472656 -657.222656 907.09375 -635.25 883.90625 -614.09375 C 835.882812 -570.550781 784.707031 -531.785156 730.375 -497.796875 C 676.050781 -463.816406 618.570312 -434.210938 557.9375 -408.984375 C 525.375 -395.554688 492.101562 -383.445312 458.125 -372.65625 C 424.144531 -361.875 389.859375 -351.601562 355.265625 -341.84375 C 331.253906 -335.332031 307.039062 -328.820312 282.625 -322.3125 C 258.207031 -315.800781 233.992188 -310.710938 209.984375 -307.046875 C 198.179688 -305.421875 186.476562 -303.789062 174.875 -302.15625 C 163.28125 -300.53125 151.582031 -299.109375 139.78125 -297.890625 C 136.9375 -297.484375 134.191406 -297.175781 131.546875 -296.96875 C 128.898438 -296.769531 126.15625 -296.671875 123.3125 -296.671875 C 113.945312 -296.671875 104.582031 -297.378906 95.21875 -298.796875 C 85.863281 -300.222656 77.320312 -304.394531 69.59375 -311.3125 C 67.144531 -310.09375 65.410156 -308.257812 64.390625 -305.8125 C 63.378906 -303.375 62.0625 -301.140625 60.4375 -299.109375 C 39.675781 -269.804688 21.257812 -239.082031 5.1875 -206.9375 C -10.882812 -174.789062 -27.265625 -142.640625 -43.953125 -110.484375 L -183.125 156.265625 C -184.75 159.117188 -186.273438 161.660156 -187.703125 163.890625 C -189.128906 166.128906 -190.65625 168.878906 -192.28125 172.140625 C -192.6875 173.359375 -193.5 174.578125 -194.71875 175.796875 C -195.945312 177.023438 -196.96875 178.046875 -197.78125 178.859375 C -201.03125 182.109375 -204.894531 182.515625 -209.375 180.078125 Z M 132.46875 -315.59375 C 144.269531 -316.8125 155.765625 -318.132812 166.953125 -319.5625 C 178.140625 -320.988281 189.226562 -322.71875 200.21875 -324.75 C 225.039062 -329.632812 249.660156 -335.128906 274.078125 -341.234375 C 298.492188 -347.335938 322.503906 -353.644531 346.109375 -360.15625 C 381.515625 -370.320312 416.816406 -380.898438 452.015625 -391.890625 C 487.222656 -402.878906 521.507812 -415.492188 554.875 -429.734375 C 700.15625 -491.597656 827.328125 -580.519531 936.390625 -696.5 C 952.671875 -713.59375 968.132812 -731.394531 982.78125 -749.90625 C 997.4375 -768.425781 1010.664062 -787.65625 1022.46875 -807.59375 C 1037.113281 -832.414062 1048.914062 -858.460938 1057.875 -885.734375 C 1061.53125 -897.128906 1064.476562 -908.726562 1066.71875 -920.53125 C 1068.957031 -932.332031 1070.078125 -943.925781 1070.078125 -955.3125 C 1070.078125 -959.382812 1070.078125 -963.25 1070.078125 -966.90625 C 1070.078125 -970.570312 1069.671875 -974.441406 1068.859375 -978.515625 C 1066.015625 -998.859375 1059.601562 -1016.660156 1049.625 -1031.921875 C 1039.65625 -1047.179688 1025.3125 -1059.289062 1006.59375 -1068.25 C 993.976562 -1074.757812 980.75 -1079.335938 966.90625 -1081.984375 C 953.070312 -1084.628906 939.035156 -1085.953125 924.796875 -1085.953125 C 913.398438 -1085.953125 902.003906 -1085.132812 890.609375 -1083.5 C 879.210938 -1081.875 868.226562 -1079.84375 857.65625 -1077.40625 C 836.894531 -1072.519531 816.847656 -1066.3125 797.515625 -1058.78125 C 778.191406 -1051.257812 758.96875 -1042.816406 739.84375 -1033.453125 C 707.28125 -1017.171875 676.039062 -998.753906 646.125 -978.203125 C 616.21875 -957.660156 587.226562 -935.992188 559.15625 -913.203125 C 519.269531 -881.046875 481.316406 -846.859375 445.296875 -810.640625 C 409.285156 -774.421875 374.597656 -736.78125 341.234375 -697.71875 C 294.023438 -641.96875 249.664062 -584.484375 208.15625 -525.265625 C 166.644531 -466.054688 126.15625 -405.523438 86.6875 -343.671875 L 82.40625 -336.953125 C 81.59375 -335.328125 81.1875 -333.703125 81.1875 -332.078125 C 81.1875 -331.265625 81.59375 -330.347656 82.40625 -329.328125 C 83.21875 -328.304688 83.828125 -327.1875 84.234375 -325.96875 C 85.867188 -323.125 88.109375 -321.289062 90.953125 -320.46875 C 93.804688 -319.65625 96.859375 -318.84375 100.109375 -318.03125 C 105.398438 -317.21875 110.789062 -316.707031 116.28125 -316.5 C 121.78125 -316.300781 127.175781 -316 132.46875 -315.59375 Z M 132.46875 -315.59375 "/></g></g><g transform="translate(654.259808, 1791.336117)"><g><path d="M 158.09375 -53.71875 C 147.519531 -53.71875 138.566406 -56.160156 131.234375 -61.046875 C 123.910156 -65.929688 118.421875 -72.441406 114.765625 -80.578125 C 112.316406 -86.273438 110.378906 -91.867188 108.953125 -97.359375 C 107.535156 -102.859375 106.828125 -108.457031 106.828125 -114.15625 L 106.828125 -137.34375 C 104.378906 -139.789062 102.546875 -141.828125 101.328125 -143.453125 C 100.109375 -145.078125 99.5 -146.90625 99.5 -148.9375 C 99.5 -149.757812 99.597656 -150.78125 99.796875 -152 C 100.003906 -153.21875 100.3125 -154.640625 100.71875 -156.265625 C 101.53125 -159.523438 102.546875 -163.1875 103.765625 -167.25 C 104.992188 -171.320312 106.21875 -175.597656 107.4375 -180.078125 C 105.8125 -178.453125 104.488281 -177.226562 103.46875 -176.40625 C 102.445312 -175.59375 101.53125 -174.78125 100.71875 -173.96875 C 93.394531 -166.644531 86.578125 -159.015625 80.265625 -151.078125 C 73.960938 -143.140625 67.554688 -135.304688 61.046875 -127.578125 C 56.160156 -121.878906 51.070312 -116.078125 45.78125 -110.171875 C 40.488281 -104.273438 34.992188 -98.476562 29.296875 -92.78125 C 25.234375 -88.71875 21.0625 -85.160156 16.78125 -82.109375 C 12.507812 -79.054688 8.132812 -75.695312 3.65625 -72.03125 C 1.625 -70.40625 -0.8125 -68.878906 -3.65625 -67.453125 C -6.507812 -66.023438 -9.5625 -64.90625 -12.8125 -64.09375 C -13.632812 -63.6875 -14.65625 -63.484375 -15.875 -63.484375 C -17.09375 -63.484375 -18.109375 -63.484375 -18.921875 -63.484375 C -23.804688 -63.484375 -27.773438 -65.3125 -30.828125 -68.96875 C -33.878906 -72.632812 -35.40625 -77.113281 -35.40625 -82.40625 C -35.40625 -85.664062 -35 -89.023438 -34.1875 -92.484375 C -33.375 -95.941406 -32.351562 -99.09375 -31.125 -101.9375 C -26.65625 -112.925781 -21.46875 -123.8125 -15.5625 -134.59375 C -9.664062 -145.382812 -3.460938 -155.660156 3.046875 -165.421875 C 9.554688 -174.785156 16.675781 -183.429688 24.40625 -191.359375 C 32.144531 -199.296875 40.082031 -206.726562 48.21875 -213.65625 C 52.695312 -217.3125 57.378906 -220.765625 62.265625 -224.015625 C 67.148438 -227.273438 72.238281 -230.128906 77.53125 -232.578125 C 80.375 -233.796875 83.320312 -234.910156 86.375 -235.921875 C 89.425781 -236.941406 92.378906 -237.65625 95.234375 -238.0625 C 96.859375 -238.46875 98.28125 -238.769531 99.5 -238.96875 C 100.71875 -239.175781 101.9375 -239.28125 103.15625 -239.28125 C 106.820312 -239.28125 110.28125 -238.875 113.53125 -238.0625 C 116.789062 -237.25 119.847656 -235.421875 122.703125 -232.578125 L 125.140625 -230.125 L 126.359375 -229.515625 L 133.6875 -233.1875 C 134.5 -233.59375 135.515625 -233.796875 136.734375 -233.796875 C 142.835938 -233.796875 145.890625 -230.742188 145.890625 -224.640625 C 145.890625 -223.015625 145.6875 -221.179688 145.28125 -219.140625 C 144.875 -217.109375 144.265625 -215.078125 143.453125 -213.046875 C 141.003906 -206.117188 138.863281 -199.09375 137.03125 -191.96875 C 135.207031 -184.851562 133.273438 -177.632812 131.234375 -170.3125 C 129.203125 -161.351562 127.78125 -152.191406 126.96875 -142.828125 C 126.15625 -133.472656 125.75 -124.117188 125.75 -114.765625 C 125.75 -106.210938 127.171875 -98.273438 130.015625 -90.953125 C 135.304688 -78.335938 144.875 -72.03125 158.71875 -72.03125 C 163.1875 -72.03125 167.457031 -72.332031 171.53125 -72.9375 C 175.601562 -73.550781 179.671875 -74.875 183.734375 -76.90625 C 186.992188 -78.945312 190.453125 -80.78125 194.109375 -82.40625 C 197.773438 -84.03125 201.441406 -85.863281 205.109375 -87.90625 C 216.910156 -94.820312 228 -102.453125 238.375 -110.796875 C 248.75 -119.140625 258.820312 -128.191406 268.59375 -137.953125 C 270.21875 -139.578125 271.640625 -141.101562 272.859375 -142.53125 C 274.078125 -143.957031 274.28125 -146.09375 273.46875 -148.9375 C 273.0625 -148.9375 272.859375 -149.347656 272.859375 -150.171875 C 272.859375 -151.390625 273.570312 -152.300781 275 -152.90625 C 276.425781 -153.519531 277.546875 -154.234375 278.359375 -155.046875 C 279.171875 -155.859375 280.59375 -156.265625 282.625 -156.265625 C 285.476562 -156.265625 288.019531 -155.25 290.25 -153.21875 C 292.488281 -151.1875 293.609375 -148.742188 293.609375 -145.890625 C 293.609375 -142.222656 292.59375 -138.96875 290.5625 -136.125 C 289.34375 -134.5 288.117188 -132.972656 286.890625 -131.546875 C 285.671875 -130.117188 284.453125 -128.796875 283.234375 -127.578125 C 273.066406 -117.398438 262.691406 -108.242188 252.109375 -100.109375 C 241.523438 -91.972656 230.332031 -83.832031 218.53125 -75.6875 C 211.613281 -70.8125 204.285156 -66.335938 196.546875 -62.265625 C 188.816406 -58.191406 180.679688 -55.75 172.140625 -54.9375 C 169.703125 -54.53125 167.363281 -54.222656 165.125 -54.015625 C 162.882812 -53.816406 160.539062 -53.71875 158.09375 -53.71875 Z M -16.484375 -81.796875 C -15.265625 -81.796875 -13.835938 -82.203125 -12.203125 -83.015625 C -9.359375 -84.234375 -6.710938 -85.757812 -4.265625 -87.59375 C -1.828125 -89.425781 0.609375 -91.15625 3.046875 -92.78125 C 8.742188 -96.851562 13.726562 -101.125 18 -105.59375 C 22.28125 -110.070312 26.65625 -114.957031 31.125 -120.25 C 44.15625 -135.3125 58.300781 -149.757812 73.5625 -163.59375 C 88.820312 -177.425781 100.925781 -193.296875 109.875 -211.203125 C 110.28125 -212.015625 110.6875 -212.828125 111.09375 -213.640625 C 111.5 -214.460938 111.5 -215.484375 111.09375 -216.703125 C 110.28125 -219.140625 108.453125 -220.359375 105.609375 -220.359375 C 103.566406 -220.359375 101.328125 -220.050781 98.890625 -219.4375 C 96.453125 -218.832031 94.210938 -218.125 92.171875 -217.3125 C 89.328125 -216.5 86.476562 -215.378906 83.625 -213.953125 C 80.78125 -212.523438 77.726562 -210.796875 74.46875 -208.765625 C 69.988281 -205.921875 65.613281 -202.765625 61.34375 -199.296875 C 57.070312 -195.835938 52.898438 -192.078125 48.828125 -188.015625 C 38.253906 -177.429688 28.390625 -166.441406 19.234375 -155.046875 C 10.078125 -143.648438 2.035156 -131.238281 -4.890625 -117.8125 C -6.921875 -113.738281 -8.847656 -109.566406 -10.671875 -105.296875 C -12.503906 -101.023438 -14.238281 -96.648438 -15.875 -92.171875 C -16.6875 -89.734375 -17.09375 -87.703125 -17.09375 -86.078125 C -17.09375 -84.441406 -16.890625 -83.015625 -16.484375 -81.796875 Z M -16.484375 -81.796875 "/></g></g><g transform="translate(939.940895, 1791.336117)"><g><path d="M -81.796875 12.203125 C -84.648438 12.203125 -86.6875 10.773438 -87.90625 7.921875 C -89.125 5.078125 -90.953125 2.4375 -93.390625 0 C -93.796875 -0.40625 -94 -0.8125 -94 -1.21875 C -94 -4.476562 -93.390625 -7.328125 -92.171875 -9.765625 C -90.140625 -13.429688 -88.507812 -17.398438 -87.28125 -21.671875 C -86.0625 -25.941406 -84.4375 -30.113281 -82.40625 -34.1875 C -77.519531 -43.539062 -72.632812 -52.894531 -67.75 -62.25 C -62.875 -71.613281 -57.585938 -80.773438 -51.890625 -89.734375 C -35.203125 -116.179688 -17.90625 -142.019531 0 -167.25 C 17.90625 -192.488281 35.609375 -217.925781 53.109375 -243.5625 C 55.953125 -247.632812 58.796875 -251.601562 61.640625 -255.46875 C 64.492188 -259.332031 67.753906 -263.09375 71.421875 -266.75 C 73.046875 -268.382812 74.875 -269.8125 76.90625 -271.03125 C 78.945312 -272.25 80.78125 -273.46875 82.40625 -274.6875 C 84.4375 -275.914062 86.269531 -276.53125 87.90625 -276.53125 C 91.15625 -276.53125 93.898438 -275.304688 96.140625 -272.859375 C 98.378906 -270.421875 99.5 -267.570312 99.5 -264.3125 C 99.5 -261.0625 98.890625 -257.910156 97.671875 -254.859375 C 96.453125 -251.804688 94.820312 -248.851562 92.78125 -246 C 86.269531 -236.238281 79.960938 -226.269531 73.859375 -216.09375 C 67.753906 -205.914062 61.242188 -195.945312 54.328125 -186.1875 C 51.484375 -182.113281 48.328125 -177.835938 44.859375 -173.359375 C 41.398438 -168.878906 38.25 -164.40625 35.40625 -159.9375 L 32.96875 -155.65625 C 30.519531 -152 27.054688 -150.171875 22.578125 -150.171875 C 21.359375 -150.171875 19.53125 -150.578125 17.09375 -151.390625 C 2.03125 -130.628906 -12.515625 -109.566406 -26.546875 -88.203125 C -40.585938 -66.835938 -54.117188 -45.171875 -67.140625 -23.203125 C -67.960938 -21.566406 -68.878906 -19.9375 -69.890625 -18.3125 C -70.910156 -16.6875 -71.21875 -14.648438 -70.8125 -12.203125 C -68.769531 -13.015625 -66.832031 -14.132812 -65 -15.5625 C -63.175781 -16.988281 -61.453125 -18.3125 -59.828125 -19.53125 C -48.429688 -28.488281 -37.644531 -37.847656 -27.46875 -47.609375 C -17.289062 -57.378906 -6.914062 -66.941406 3.65625 -76.296875 C 17.90625 -88.503906 31.539062 -101.117188 44.5625 -114.140625 C 57.582031 -127.171875 71.007812 -139.789062 84.84375 -152 C 90.539062 -157.289062 96.75 -162.375 103.46875 -167.25 C 110.1875 -172.132812 116.1875 -177.222656 121.46875 -182.515625 C 123.914062 -184.960938 126.664062 -187.097656 129.71875 -188.921875 C 132.769531 -190.753906 135.71875 -192.6875 138.5625 -194.71875 C 140.195312 -195.945312 142.03125 -196.660156 144.0625 -196.859375 C 146.09375 -197.066406 147.71875 -197.78125 148.9375 -199 C 149.351562 -199.40625 150.375 -199.609375 152 -199.609375 C 159.726562 -199.609375 163.59375 -195.742188 163.59375 -188.015625 C 163.59375 -185.972656 163.390625 -183.832031 162.984375 -181.59375 C 162.578125 -179.363281 161.96875 -177.226562 161.15625 -175.1875 C 159.53125 -169.082031 157.597656 -163.078125 155.359375 -157.171875 C 153.117188 -151.273438 151.1875 -145.273438 149.5625 -139.171875 C 147.925781 -132.253906 146.296875 -125.234375 144.671875 -118.109375 C 143.046875 -110.992188 141.414062 -103.976562 139.78125 -97.0625 C 138.5625 -91.769531 137.953125 -86.273438 137.953125 -80.578125 C 137.953125 -67.960938 140.289062 -58.296875 144.96875 -51.578125 C 149.65625 -44.867188 157.695312 -41.515625 169.09375 -41.515625 C 178.039062 -41.515625 186.992188 -43.75 195.953125 -48.21875 C 202.054688 -51.476562 207.851562 -55.039062 213.34375 -58.90625 C 218.832031 -62.769531 224.222656 -66.941406 229.515625 -71.421875 C 243.359375 -83.628906 256.890625 -95.9375 270.109375 -108.34375 C 283.335938 -120.757812 296.460938 -133.476562 309.484375 -146.5 C 310.703125 -147.71875 311.71875 -148.9375 312.53125 -150.15625 C 313.351562 -151.382812 314.375 -152.203125 315.59375 -152.609375 C 317.625 -153.828125 319.25 -154.4375 320.46875 -154.4375 C 323.320312 -154.4375 325.359375 -153.828125 326.578125 -152.609375 C 330.242188 -148.941406 331.054688 -145.484375 329.015625 -142.234375 C 327.796875 -140.597656 326.578125 -138.765625 325.359375 -136.734375 C 324.140625 -134.703125 322.710938 -132.867188 321.078125 -131.234375 C 309.273438 -119.441406 297.269531 -107.742188 285.0625 -96.140625 C 272.851562 -84.546875 260.238281 -73.253906 247.21875 -62.265625 C 243.15625 -59.003906 239.085938 -55.847656 235.015625 -52.796875 C 230.941406 -49.742188 226.671875 -46.59375 222.203125 -43.34375 C 214.054688 -36.832031 204.691406 -31.742188 194.109375 -28.078125 C 190.046875 -26.453125 185.875 -25.128906 181.59375 -24.109375 C 177.320312 -23.085938 172.953125 -22.578125 168.484375 -22.578125 C 166.847656 -22.578125 165.316406 -22.578125 163.890625 -22.578125 C 162.472656 -22.578125 161.15625 -22.785156 159.9375 -23.203125 C 148.539062 -26.046875 139.484375 -30.722656 132.765625 -37.234375 C 126.054688 -43.742188 122.085938 -52.695312 120.859375 -64.09375 C 120.453125 -66.945312 120.25 -69.59375 120.25 -72.03125 C 120.25 -74.46875 120.25 -76.910156 120.25 -79.359375 C 120.25 -87.492188 120.859375 -95.222656 122.078125 -102.546875 C 123.710938 -112.316406 125.953125 -121.984375 128.796875 -131.546875 C 131.648438 -141.109375 134.5 -150.367188 137.34375 -159.328125 L 141.015625 -172.140625 L 139.171875 -173.96875 L 126.359375 -163.59375 C 109.265625 -149.757812 92.78125 -135.3125 76.90625 -120.25 C 61.039062 -105.195312 44.96875 -90.140625 28.6875 -75.078125 C 16.070312 -63.679688 3.5625 -52.285156 -8.84375 -40.890625 C -21.257812 -29.503906 -33.976562 -18.519531 -47 -7.9375 C -49.851562 -5.488281 -52.90625 -3.046875 -56.15625 -0.609375 C -59.414062 1.828125 -62.671875 4.066406 -65.921875 6.109375 C -69.585938 8.546875 -73.25 10.375 -76.90625 11.59375 C -78.132812 12 -79.765625 12.203125 -81.796875 12.203125 Z M -81.796875 12.203125 "/></g></g><g transform="translate(1262.858184, 1791.336117)"><g><path d="M 158.09375 -53.71875 C 147.519531 -53.71875 138.566406 -56.160156 131.234375 -61.046875 C 123.910156 -65.929688 118.421875 -72.441406 114.765625 -80.578125 C 112.316406 -86.273438 110.378906 -91.867188 108.953125 -97.359375 C 107.535156 -102.859375 106.828125 -108.457031 106.828125 -114.15625 L 106.828125 -137.34375 C 104.378906 -139.789062 102.546875 -141.828125 101.328125 -143.453125 C 100.109375 -145.078125 99.5 -146.90625 99.5 -148.9375 C 99.5 -149.757812 99.597656 -150.78125 99.796875 -152 C 100.003906 -153.21875 100.3125 -154.640625 100.71875 -156.265625 C 101.53125 -159.523438 102.546875 -163.1875 103.765625 -167.25 C 104.992188 -171.320312 106.21875 -175.597656 107.4375 -180.078125 C 105.8125 -178.453125 104.488281 -177.226562 103.46875 -176.40625 C 102.445312 -175.59375 101.53125 -174.78125 100.71875 -173.96875 C 93.394531 -166.644531 86.578125 -159.015625 80.265625 -151.078125 C 73.960938 -143.140625 67.554688 -135.304688 61.046875 -127.578125 C 56.160156 -121.878906 51.070312 -116.078125 45.78125 -110.171875 C 40.488281 -104.273438 34.992188 -98.476562 29.296875 -92.78125 C 25.234375 -88.71875 21.0625 -85.160156 16.78125 -82.109375 C 12.507812 -79.054688 8.132812 -75.695312 3.65625 -72.03125 C 1.625 -70.40625 -0.8125 -68.878906 -3.65625 -67.453125 C -6.507812 -66.023438 -9.5625 -64.90625 -12.8125 -64.09375 C -13.632812 -63.6875 -14.65625 -63.484375 -15.875 -63.484375 C -17.09375 -63.484375 -18.109375 -63.484375 -18.921875 -63.484375 C -23.804688 -63.484375 -27.773438 -65.3125 -30.828125 -68.96875 C -33.878906 -72.632812 -35.40625 -77.113281 -35.40625 -82.40625 C -35.40625 -85.664062 -35 -89.023438 -34.1875 -92.484375 C -33.375 -95.941406 -32.351562 -99.09375 -31.125 -101.9375 C -26.65625 -112.925781 -21.46875 -123.8125 -15.5625 -134.59375 C -9.664062 -145.382812 -3.460938 -155.660156 3.046875 -165.421875 C 9.554688 -174.785156 16.675781 -183.429688 24.40625 -191.359375 C 32.144531 -199.296875 40.082031 -206.726562 48.21875 -213.65625 C 52.695312 -217.3125 57.378906 -220.765625 62.265625 -224.015625 C 67.148438 -227.273438 72.238281 -230.128906 77.53125 -232.578125 C 80.375 -233.796875 83.320312 -234.910156 86.375 -235.921875 C 89.425781 -236.941406 92.378906 -237.65625 95.234375 -238.0625 C 96.859375 -238.46875 98.28125 -238.769531 99.5 -238.96875 C 100.71875 -239.175781 101.9375 -239.28125 103.15625 -239.28125 C 106.820312 -239.28125 110.28125 -238.875 113.53125 -238.0625 C 116.789062 -237.25 119.847656 -235.421875 122.703125 -232.578125 L 125.140625 -230.125 L 126.359375 -229.515625 L 133.6875 -233.1875 C 134.5 -233.59375 135.515625 -233.796875 136.734375 -233.796875 C 142.835938 -233.796875 145.890625 -230.742188 145.890625 -224.640625 C 145.890625 -223.015625 145.6875 -221.179688 145.28125 -219.140625 C 144.875 -217.109375 144.265625 -215.078125 143.453125 -213.046875 C 141.003906 -206.117188 138.863281 -199.09375 137.03125 -191.96875 C 135.207031 -184.851562 133.273438 -177.632812 131.234375 -170.3125 C 129.203125 -161.351562 127.78125 -152.191406 126.96875 -142.828125 C 126.15625 -133.472656 125.75 -124.117188 125.75 -114.765625 C 125.75 -106.210938 127.171875 -98.273438 130.015625 -90.953125 C 135.304688 -78.335938 144.875 -72.03125 158.71875 -72.03125 C 163.1875 -72.03125 167.457031 -72.332031 171.53125 -72.9375 C 175.601562 -73.550781 179.671875 -74.875 183.734375 -76.90625 C 186.992188 -78.945312 190.453125 -80.78125 194.109375 -82.40625 C 197.773438 -84.03125 201.441406 -85.863281 205.109375 -87.90625 C 216.910156 -94.820312 228 -102.453125 238.375 -110.796875 C 248.75 -119.140625 258.820312 -128.191406 268.59375 -137.953125 C 270.21875 -139.578125 271.640625 -141.101562 272.859375 -142.53125 C 274.078125 -143.957031 274.28125 -146.09375 273.46875 -148.9375 C 273.0625 -148.9375 272.859375 -149.347656 272.859375 -150.171875 C 272.859375 -151.390625 273.570312 -152.300781 275 -152.90625 C 276.425781 -153.519531 277.546875 -154.234375 278.359375 -155.046875 C 279.171875 -155.859375 280.59375 -156.265625 282.625 -156.265625 C 285.476562 -156.265625 288.019531 -155.25 290.25 -153.21875 C 292.488281 -151.1875 293.609375 -148.742188 293.609375 -145.890625 C 293.609375 -142.222656 292.59375 -138.96875 290.5625 -136.125 C 289.34375 -134.5 288.117188 -132.972656 286.890625 -131.546875 C 285.671875 -130.117188 284.453125 -128.796875 283.234375 -127.578125 C 273.066406 -117.398438 262.691406 -108.242188 252.109375 -100.109375 C 241.523438 -91.972656 230.332031 -83.832031 218.53125 -75.6875 C 211.613281 -70.8125 204.285156 -66.335938 196.546875 -62.265625 C 188.816406 -58.191406 180.679688 -55.75 172.140625 -54.9375 C 169.703125 -54.53125 167.363281 -54.222656 165.125 -54.015625 C 162.882812 -53.816406 160.539062 -53.71875 158.09375 -53.71875 Z M -16.484375 -81.796875 C -15.265625 -81.796875 -13.835938 -82.203125 -12.203125 -83.015625 C -9.359375 -84.234375 -6.710938 -85.757812 -4.265625 -87.59375 C -1.828125 -89.425781 0.609375 -91.15625 3.046875 -92.78125 C 8.742188 -96.851562 13.726562 -101.125 18 -105.59375 C 22.28125 -110.070312 26.65625 -114.957031 31.125 -120.25 C 44.15625 -135.3125 58.300781 -149.757812 73.5625 -163.59375 C 88.820312 -177.425781 100.925781 -193.296875 109.875 -211.203125 C 110.28125 -212.015625 110.6875 -212.828125 111.09375 -213.640625 C 111.5 -214.460938 111.5 -215.484375 111.09375 -216.703125 C 110.28125 -219.140625 108.453125 -220.359375 105.609375 -220.359375 C 103.566406 -220.359375 101.328125 -220.050781 98.890625 -219.4375 C 96.453125 -218.832031 94.210938 -218.125 92.171875 -217.3125 C 89.328125 -216.5 86.476562 -215.378906 83.625 -213.953125 C 80.78125 -212.523438 77.726562 -210.796875 74.46875 -208.765625 C 69.988281 -205.921875 65.613281 -202.765625 61.34375 -199.296875 C 57.070312 -195.835938 52.898438 -192.078125 48.828125 -188.015625 C 38.253906 -177.429688 28.390625 -166.441406 19.234375 -155.046875 C 10.078125 -143.648438 2.035156 -131.238281 -4.890625 -117.8125 C -6.921875 -113.738281 -8.847656 -109.566406 -10.671875 -105.296875 C -12.503906 -101.023438 -14.238281 -96.648438 -15.875 -92.171875 C -16.6875 -89.734375 -17.09375 -87.703125 -17.09375 -86.078125 C -17.09375 -84.441406 -16.890625 -83.015625 -16.484375 -81.796875 Z M -16.484375 -81.796875 "/></g></g><g transform="translate(1548.539272, 1791.336117)"><g><path d="M 325.359375 0 C 313.148438 0 303.789062 -5.492188 297.28125 -16.484375 C 294.425781 -21.773438 292.285156 -27.164062 290.859375 -32.65625 C 289.441406 -38.15625 288.328125 -43.75 287.515625 -49.4375 C 287.109375 -52.695312 286.800781 -55.648438 286.59375 -58.296875 C 286.394531 -60.941406 286.296875 -63.6875 286.296875 -66.53125 C 286.296875 -73.863281 286.703125 -81.085938 287.515625 -88.203125 C 288.328125 -95.328125 289.546875 -102.347656 291.171875 -109.265625 L 303.375 -161.15625 C 304.195312 -164.40625 304.910156 -167.554688 305.515625 -170.609375 C 306.128906 -173.660156 306.4375 -176.613281 306.4375 -179.46875 L 306.4375 -180.6875 C 306.4375 -181.5 306.332031 -182.410156 306.125 -183.421875 C 305.925781 -184.441406 305.828125 -185.566406 305.828125 -186.796875 C 304.191406 -186.390625 302.765625 -186.082031 301.546875 -185.875 C 300.328125 -185.664062 299.3125 -185.15625 298.5 -184.34375 C 295.238281 -182.3125 291.878906 -180.273438 288.421875 -178.234375 C 284.960938 -176.203125 281.609375 -173.96875 278.359375 -171.53125 C 266.148438 -162.570312 254.144531 -153.207031 242.34375 -143.4375 C 230.539062 -133.675781 218.738281 -124.117188 206.9375 -114.765625 C 197.570312 -107.429688 188.207031 -99.898438 178.84375 -92.171875 C 169.488281 -84.441406 159.929688 -77.117188 150.171875 -70.203125 C 146.097656 -67.347656 141.921875 -64.90625 137.640625 -62.875 C 133.367188 -60.84375 129.40625 -58.398438 125.75 -55.546875 C 121.675781 -52.703125 116.789062 -51.28125 111.09375 -51.28125 C 107.03125 -51.28125 103.367188 -52.5 100.109375 -54.9375 C 96.859375 -57.375 95.234375 -60.628906 95.234375 -64.703125 L 95.234375 -67.140625 C 95.234375 -69.179688 95.332031 -70.910156 95.53125 -72.328125 C 95.738281 -73.753906 96.046875 -75.28125 96.453125 -76.90625 C 98.078125 -80.570312 99.296875 -84.234375 100.109375 -87.890625 C 100.921875 -91.554688 102.140625 -95.019531 103.765625 -98.28125 C 110.285156 -112.519531 117.003906 -126.863281 123.921875 -141.3125 C 130.835938 -155.757812 137.550781 -170.101562 144.0625 -184.34375 L 158.09375 -216.09375 C 158.914062 -217.3125 159.425781 -218.632812 159.625 -220.0625 C 159.832031 -221.488281 160.140625 -222.8125 160.546875 -224.03125 C 159.734375 -224.4375 158.710938 -224.640625 157.484375 -224.640625 C 156.671875 -224.640625 155.957031 -224.4375 155.34375 -224.03125 C 154.738281 -223.625 154.03125 -223.21875 153.21875 -222.8125 C 138.5625 -215.476562 124.925781 -206.113281 112.3125 -194.71875 C 105.394531 -188.613281 98.476562 -182.613281 91.5625 -176.71875 C 84.644531 -170.820312 77.726562 -164.613281 70.8125 -158.09375 C 54.9375 -143.039062 39.164062 -127.578125 23.5 -111.703125 C 7.832031 -95.835938 -8.140625 -80.171875 -24.421875 -64.703125 C -33.367188 -56.566406 -42.015625 -48.222656 -50.359375 -39.671875 C -58.703125 -31.128906 -67.550781 -22.789062 -76.90625 -14.65625 C -78.539062 -13.019531 -80.269531 -11.59375 -82.09375 -10.375 C -83.925781 -9.15625 -85.863281 -7.9375 -87.90625 -6.71875 C -89.125 -5.90625 -90.953125 -5.085938 -93.390625 -4.265625 C -94.203125 -3.859375 -95.222656 -3.65625 -96.453125 -3.65625 C -102.554688 -3.65625 -105.609375 -6.707031 -105.609375 -12.8125 C -105.609375 -14.851562 -104.894531 -16.988281 -103.46875 -19.21875 C -102.039062 -21.457031 -100.71875 -23.394531 -99.5 -25.03125 C -96.238281 -29.914062 -92.773438 -34.695312 -89.109375 -39.375 C -85.453125 -44.050781 -82 -48.628906 -78.75 -53.109375 C -60.03125 -78.335938 -42.328125 -103.875 -25.640625 -129.71875 C -8.953125 -155.5625 8.140625 -182.316406 25.640625 -209.984375 C 34.992188 -224.640625 44.046875 -238.78125 52.796875 -252.40625 C 61.546875 -266.039062 70.195312 -279.976562 78.75 -294.21875 C 79.5625 -295.851562 80.578125 -297.378906 81.796875 -298.796875 C 83.015625 -300.222656 84.234375 -301.75 85.453125 -303.375 C 86.273438 -304.601562 87.394531 -305.625 88.8125 -306.4375 C 90.238281 -307.25 91.359375 -308.0625 92.171875 -308.875 C 93.796875 -310.5 96.035156 -311.3125 98.890625 -311.3125 C 101.734375 -311.3125 103.769531 -310.90625 105 -310.09375 C 108.65625 -308.0625 110.484375 -304.601562 110.484375 -299.71875 C 110.484375 -296.46875 109.875 -292.601562 108.65625 -288.125 C 107.03125 -282.832031 104.992188 -277.640625 102.546875 -272.546875 C 100.109375 -267.460938 97.054688 -262.6875 93.390625 -258.21875 C 91.765625 -256.582031 90.140625 -254.847656 88.515625 -253.015625 C 86.890625 -251.191406 84.851562 -249.867188 82.40625 -249.046875 C 79.15625 -247.828125 76.914062 -246 75.6875 -243.5625 L 70.203125 -233.796875 C 58.398438 -213.035156 45.273438 -192.988281 30.828125 -173.65625 C 16.378906 -154.332031 3.050781 -134.5 -9.15625 -114.15625 L -14.65625 -105 C -13.832031 -104.175781 -13.21875 -103.765625 -12.8125 -103.765625 L -4.265625 -112.3125 C 8.753906 -125.34375 21.773438 -137.859375 34.796875 -149.859375 C 47.816406 -161.867188 60.835938 -173.976562 73.859375 -186.1875 C 91.765625 -202.863281 111.097656 -217.921875 131.859375 -231.359375 C 135.515625 -233.796875 139.378906 -236.03125 143.453125 -238.0625 C 147.523438 -240.101562 151.796875 -241.9375 156.265625 -243.5625 C 159.929688 -244.78125 163.59375 -245.390625 167.25 -245.390625 C 175.800781 -245.390625 180.078125 -241.320312 180.078125 -233.1875 L 180.078125 -231.359375 C 180.078125 -227.285156 179.46875 -223.007812 178.25 -218.53125 C 176.613281 -213.238281 174.675781 -208.148438 172.4375 -203.265625 C 170.207031 -198.390625 167.867188 -193.507812 165.421875 -188.625 L 128.1875 -109.875 C 126.15625 -104.988281 124.222656 -100.101562 122.390625 -95.21875 C 120.554688 -90.34375 118.625 -85.664062 116.59375 -81.1875 C 116.1875 -79.5625 115.878906 -78.132812 115.671875 -76.90625 C 115.472656 -75.6875 115.171875 -74.46875 114.765625 -73.25 C 116.390625 -71.625 118.421875 -71.625 120.859375 -73.25 C 124.929688 -76.101562 129 -78.75 133.0625 -81.1875 C 137.132812 -83.625 141.003906 -86.269531 144.671875 -89.125 C 169.085938 -109.875 194.113281 -130.019531 219.75 -149.5625 C 229.113281 -156.476562 238.375 -163.492188 247.53125 -170.609375 C 256.6875 -177.734375 265.738281 -184.753906 274.6875 -191.671875 C 277.945312 -194.117188 281.304688 -196.15625 284.765625 -197.78125 C 288.222656 -199.40625 291.375 -201.234375 294.21875 -203.265625 C 297.476562 -205.304688 301.550781 -206.328125 306.4375 -206.328125 C 316.613281 -206.328125 322.71875 -201.238281 324.75 -191.0625 C 325.15625 -189.4375 325.359375 -187.910156 325.359375 -186.484375 C 325.359375 -185.054688 325.359375 -183.53125 325.359375 -181.90625 C 325.359375 -176.613281 324.75 -171.117188 323.53125 -165.421875 C 321.894531 -156.472656 319.957031 -147.519531 317.71875 -138.5625 C 315.488281 -129.613281 313.351562 -120.660156 311.3125 -111.703125 C 310.09375 -106.410156 308.769531 -101.019531 307.34375 -95.53125 C 305.925781 -90.039062 305.21875 -84.445312 305.21875 -78.75 C 305.21875 -76.300781 305.113281 -73.957031 304.90625 -71.71875 C 304.707031 -69.488281 304.609375 -67.148438 304.609375 -64.703125 C 304.609375 -57.378906 305.625 -49.648438 307.65625 -41.515625 C 308.46875 -38.660156 309.378906 -35.910156 310.390625 -33.265625 C 311.410156 -30.617188 312.535156 -28.078125 313.765625 -25.640625 C 316.203125 -20.753906 320.066406 -18.3125 325.359375 -18.3125 C 330.648438 -18.3125 336.144531 -19.734375 341.84375 -22.578125 C 346.3125 -24.617188 350.476562 -26.757812 354.34375 -29 C 358.21875 -31.238281 361.984375 -33.578125 365.640625 -36.015625 C 385.179688 -49.035156 403.492188 -64.09375 420.578125 -81.1875 C 431.566406 -92.175781 441.941406 -103.0625 451.703125 -113.84375 C 461.472656 -124.625 472.671875 -136.320312 485.296875 -148.9375 L 489.5625 -153.21875 C 492.820312 -156.46875 496.28125 -156.671875 499.9375 -153.828125 C 503.601562 -150.984375 504.828125 -147.320312 503.609375 -142.84375 C 503.203125 -141.625 502.179688 -139.789062 500.546875 -137.34375 C 499.734375 -136.125 498.816406 -134.90625 497.796875 -133.6875 C 496.785156 -132.46875 495.671875 -131.242188 494.453125 -130.015625 L 423.640625 -59.21875 C 415.898438 -51.476562 407.65625 -43.945312 398.90625 -36.625 C 390.164062 -29.300781 380.910156 -22.789062 371.140625 -17.09375 C 366.660156 -14.238281 362.082031 -11.691406 357.40625 -9.453125 C 352.726562 -7.222656 347.742188 -5.085938 342.453125 -3.046875 C 336.347656 -1.015625 330.648438 0 325.359375 0 Z M 325.359375 0 "/></g></g><g transform="translate(2045.429018, 1791.336117)"><g><path d="M -100.109375 21.359375 C -101.734375 20.546875 -103.257812 18.914062 -104.6875 16.46875 C -106.113281 14.03125 -106.625 11.59375 -106.21875 9.15625 C -105.40625 6.3125 -104.585938 3.460938 -103.765625 0.609375 C -102.953125 -2.234375 -101.125 -4.675781 -98.28125 -6.71875 C -96.65625 -7.9375 -95.332031 -9.460938 -94.3125 -11.296875 C -93.289062 -13.128906 -92.171875 -14.859375 -90.953125 -16.484375 L -43.953125 -92.78125 C 6.097656 -174.175781 55.945312 -255.46875 105.59375 -336.65625 C 155.25 -417.84375 205.304688 -498.925781 255.765625 -579.90625 C 287.097656 -629.550781 318.535156 -679.300781 350.078125 -729.15625 C 381.617188 -779.007812 413.460938 -828.554688 445.609375 -877.796875 C 453.335938 -889.597656 461.269531 -901.296875 469.40625 -912.890625 C 477.550781 -924.492188 485.488281 -935.992188 493.21875 -947.390625 C 495.664062 -951.046875 498.3125 -954.300781 501.15625 -957.15625 C 503.601562 -959.59375 505.84375 -960.8125 507.875 -960.8125 L 509.09375 -960.8125 C 511.539062 -960.8125 513.578125 -959.894531 515.203125 -958.0625 C 516.828125 -956.226562 517.640625 -954.296875 517.640625 -952.265625 C 517.640625 -949.015625 516.625 -945.757812 514.59375 -942.5 L 492.609375 -904.65625 C 491.796875 -903.03125 490.878906 -901.503906 489.859375 -900.078125 C 488.847656 -898.648438 487.9375 -896.921875 487.125 -894.890625 C 484.269531 -889.597656 480.804688 -885.019531 476.734375 -881.15625 C 472.671875 -877.289062 467.992188 -873.523438 462.703125 -869.859375 C 460.265625 -868.234375 458.429688 -866.195312 457.203125 -863.75 L 429.734375 -820.421875 C 402.066406 -776.460938 373.988281 -732.710938 345.5 -689.171875 C 317.007812 -645.628906 288.929688 -601.882812 261.265625 -557.9375 C 233.585938 -513.976562 206.21875 -469.921875 179.15625 -425.765625 C 152.09375 -381.617188 125.132812 -337.566406 98.28125 -293.609375 L 7.9375 -145.28125 C 5.488281 -141.613281 3.25 -137.75 1.21875 -133.6875 L 2.4375 -131.859375 C 4.476562 -133.890625 6.3125 -135.71875 7.9375 -137.34375 C 9.5625 -138.96875 11.1875 -140.597656 12.8125 -142.234375 C 25.019531 -156.878906 38.445312 -170.304688 53.09375 -182.515625 C 67.75 -194.722656 82.8125 -206.117188 98.28125 -216.703125 C 104.382812 -221.179688 110.585938 -225.148438 116.890625 -228.609375 C 123.203125 -232.066406 129.613281 -235.421875 136.125 -238.671875 C 141.820312 -241.523438 147.519531 -243.863281 153.21875 -245.6875 C 158.914062 -247.519531 164.816406 -248.4375 170.921875 -248.4375 C 181.503906 -248.4375 190.757812 -244.570312 198.6875 -236.84375 C 206.625 -229.113281 210.59375 -217.515625 210.59375 -202.046875 C 210.59375 -193.503906 209.375 -184.550781 206.9375 -175.1875 C 204.90625 -167.457031 202.359375 -159.929688 199.296875 -152.609375 C 196.242188 -145.285156 192.890625 -138.160156 189.234375 -131.234375 L 183.734375 -120.25 C 184.140625 -120.25 184.546875 -120.144531 184.953125 -119.9375 C 185.359375 -119.738281 185.769531 -119.640625 186.1875 -119.640625 C 187.40625 -119.640625 188.625 -119.941406 189.84375 -120.546875 C 191.0625 -121.160156 192.28125 -121.671875 193.5 -122.078125 C 206.53125 -125.335938 219.351562 -129.203125 231.96875 -133.671875 C 244.582031 -138.148438 257.601562 -141.613281 271.03125 -144.0625 C 280.800781 -146.09375 290.566406 -147.71875 300.328125 -148.9375 C 310.097656 -150.164062 320.066406 -151.59375 330.234375 -153.21875 C 335.929688 -154.03125 341.832031 -154.738281 347.9375 -155.34375 C 354.039062 -155.957031 360.144531 -156.265625 366.25 -156.265625 L 369.921875 -156.265625 C 371.953125 -156.265625 373.882812 -156.265625 375.71875 -156.265625 C 377.550781 -156.265625 379.28125 -156.0625 380.90625 -155.65625 C 387.414062 -154.4375 390.671875 -150.570312 390.671875 -144.0625 C 390.671875 -141.207031 389.550781 -138.863281 387.3125 -137.03125 C 385.070312 -135.207031 382.53125 -134.703125 379.6875 -135.515625 C 374.800781 -137.140625 369.507812 -137.953125 363.8125 -137.953125 C 359.738281 -137.953125 355.769531 -137.644531 351.90625 -137.03125 C 348.039062 -136.425781 344.078125 -135.921875 340.015625 -135.515625 C 325.765625 -134.296875 311.515625 -132.363281 297.265625 -129.71875 C 283.023438 -127.070312 268.785156 -124.117188 254.546875 -120.859375 C 239.898438 -117.203125 225.554688 -112.828125 211.515625 -107.734375 C 197.472656 -102.648438 183.535156 -97.054688 169.703125 -90.953125 C 164.003906 -88.515625 159.523438 -85.054688 156.265625 -80.578125 C 148.941406 -70.804688 141.207031 -61.644531 133.0625 -53.09375 C 124.925781 -44.550781 116.179688 -36.210938 106.828125 -28.078125 C 102.753906 -24.410156 98.476562 -21.15625 94 -18.3125 C 89.53125 -15.46875 84.851562 -12.617188 79.96875 -9.765625 C 75.894531 -7.328125 71.210938 -6.109375 65.921875 -6.109375 C 56.160156 -6.109375 51.28125 -10.378906 51.28125 -18.921875 C 51.28125 -22.179688 51.988281 -25.335938 53.40625 -28.390625 C 54.832031 -31.441406 56.359375 -34.1875 57.984375 -36.625 C 61.242188 -41.101562 64.601562 -45.171875 68.0625 -48.828125 C 71.519531 -52.492188 75.285156 -55.957031 79.359375 -59.21875 C 86.273438 -64.90625 93.085938 -70.191406 99.796875 -75.078125 C 106.515625 -79.960938 113.535156 -84.441406 120.859375 -88.515625 C 124.523438 -90.546875 128.1875 -92.578125 131.84375 -94.609375 C 135.507812 -96.648438 139.175781 -98.484375 142.84375 -100.109375 C 148.945312 -102.960938 153.828125 -107.441406 157.484375 -113.546875 C 163.585938 -124.117188 169.382812 -134.59375 174.875 -144.96875 C 180.375 -155.351562 184.957031 -166.445312 188.625 -178.25 C 189.4375 -181.5 190.25 -184.648438 191.0625 -187.703125 C 191.875 -190.753906 192.28125 -193.707031 192.28125 -196.5625 L 192.28125 -201.4375 C 192.28125 -211.613281 190.648438 -218.835938 187.390625 -223.109375 C 184.140625 -227.378906 179.054688 -229.515625 172.140625 -229.515625 C 164.410156 -229.515625 156.675781 -227.890625 148.9375 -224.640625 C 136.726562 -219.347656 124.929688 -212.835938 113.546875 -205.109375 C 100.921875 -196.554688 88.8125 -187.597656 77.21875 -178.234375 C 65.625 -168.878906 54.332031 -158.707031 43.34375 -147.71875 C 25.03125 -129.40625 7.734375 -110.378906 -8.546875 -90.640625 C -24.828125 -70.910156 -40.695312 -50.460938 -56.15625 -29.296875 C -61.445312 -22.378906 -66.632812 -15.359375 -71.71875 -8.234375 C -76.8125 -1.117188 -81.597656 6.097656 -86.078125 13.421875 L -87.90625 16.484375 C -89.53125 19.328125 -91.460938 20.953125 -93.703125 21.359375 C -95.941406 21.765625 -98.078125 21.765625 -100.109375 21.359375 Z M 83.015625 -34.796875 C 90.335938 -39.273438 95.421875 -42.734375 98.265625 -45.171875 C 101.117188 -47.609375 103.160156 -50.457031 104.390625 -53.71875 C 100.316406 -50.863281 96.445312 -48.015625 92.78125 -45.171875 C 89.125 -42.328125 85.867188 -38.867188 83.015625 -34.796875 Z M 83.015625 -34.796875 "/></g></g><g transform="translate(2426.337126, 1791.336117)"><g><path d="M 51.890625 -307.65625 C 53.921875 -310.914062 56.363281 -313.765625 59.21875 -316.203125 L 68.375 -322.921875 C 70.40625 -324.546875 72.128906 -326.066406 73.546875 -327.484375 C 74.972656 -328.910156 76.300781 -330.847656 77.53125 -333.296875 C 77.9375 -334.109375 78.75 -335.125 79.96875 -336.34375 C 81.1875 -337.5625 82 -338.375 82.40625 -338.78125 C 90.132812 -344.882812 98.375 -349.867188 107.125 -353.734375 C 115.875 -357.609375 123.910156 -362.597656 131.234375 -368.703125 C 132.054688 -369.515625 133.175781 -370.222656 134.59375 -370.828125 C 136.019531 -371.441406 137.546875 -371.546875 139.171875 -371.140625 L 141.015625 -371.140625 C 142.640625 -370.734375 143.859375 -370.125 144.671875 -369.3125 C 145.484375 -368.5 146.296875 -367.679688 147.109375 -366.859375 C 147.921875 -366.453125 148.222656 -365.84375 148.015625 -365.03125 C 147.816406 -364.21875 147.71875 -363.40625 147.71875 -362.59375 C 147.71875 -360.15625 146.90625 -358.320312 145.28125 -357.09375 C 144.46875 -356.6875 143.65625 -356.28125 142.84375 -355.875 C 142.03125 -355.46875 141.210938 -354.859375 140.390625 -354.046875 C 128.179688 -343.054688 119.023438 -334.304688 112.921875 -327.796875 C 106.816406 -321.285156 101.222656 -315.789062 96.140625 -311.3125 C 91.054688 -306.84375 83.425781 -301.757812 73.25 -296.0625 C 70.8125 -294.832031 67.554688 -294.726562 63.484375 -295.75 C 59.410156 -296.769531 56.15625 -298.5 53.71875 -300.9375 C 51.28125 -303.382812 50.671875 -305.625 51.890625 -307.65625 Z M 28.6875 -61.046875 C 24.613281 -61.046875 20.644531 -61.25 16.78125 -61.65625 C 12.914062 -62.0625 9.15625 -62.875 5.5 -64.09375 C -13.21875 -70.195312 -22.578125 -83.21875 -22.578125 -103.15625 C -22.578125 -107.632812 -22.066406 -111.90625 -21.046875 -115.96875 C -20.035156 -120.039062 -18.921875 -124.113281 -17.703125 -128.1875 C -16.484375 -131.851562 -15.160156 -135.414062 -13.734375 -138.875 C -12.304688 -142.332031 -10.78125 -145.6875 -9.15625 -148.9375 C -4.675781 -158.300781 0.613281 -167.15625 6.71875 -175.5 C 12.820312 -183.84375 18.519531 -192.488281 23.8125 -201.4375 C 24.625 -203.070312 25.640625 -204.5 26.859375 -205.71875 C 28.078125 -206.9375 29.296875 -208.15625 30.515625 -209.375 C 32.554688 -211.40625 35 -212.421875 37.84375 -212.421875 C 38.65625 -212.421875 39.46875 -212.21875 40.28125 -211.8125 C 41.101562 -211.40625 41.921875 -211 42.734375 -210.59375 C 45.171875 -210.1875 46.390625 -208.15625 46.390625 -204.5 C 46.390625 -202.863281 45.78125 -200.828125 44.5625 -198.390625 L 42.734375 -195.34375 C 37.847656 -187.195312 33.164062 -179.664062 28.6875 -172.75 L 27.46875 -170.921875 C 20.957031 -165.222656 15.972656 -158.609375 12.515625 -151.078125 C 9.054688 -143.546875 5.695312 -135.914062 2.4375 -128.1875 C 0.8125 -124.113281 -0.503906 -119.941406 -1.515625 -115.671875 C -2.535156 -111.398438 -3.046875 -107.023438 -3.046875 -102.546875 C -3.046875 -96.441406 -1.421875 -91.351562 1.828125 -87.28125 C 5.085938 -83.21875 9.972656 -81.1875 16.484375 -81.1875 C 18.515625 -81.1875 20.648438 -81.082031 22.890625 -80.875 C 25.128906 -80.675781 27.265625 -80.578125 29.296875 -80.578125 C 33.773438 -80.578125 38.457031 -80.878906 43.34375 -81.484375 C 48.226562 -82.097656 52.90625 -83.21875 57.375 -84.84375 C 71.625 -89.320312 84.851562 -94.207031 97.0625 -99.5 C 111.300781 -105.601562 125.03125 -112.414062 138.25 -119.9375 C 151.476562 -127.46875 164.8125 -134.492188 178.25 -141.015625 C 180.6875 -142.234375 183.125 -143.65625 185.5625 -145.28125 C 188.007812 -146.90625 190.046875 -148.941406 191.671875 -151.390625 C 194.117188 -154.234375 196.5625 -155.65625 199 -155.65625 C 199.8125 -155.65625 200.722656 -155.453125 201.734375 -155.046875 C 202.753906 -154.640625 203.878906 -154.03125 205.109375 -153.21875 C 207.546875 -152 208.765625 -149.148438 208.765625 -144.671875 C 208.765625 -144.265625 208.863281 -143.550781 209.0625 -142.53125 C 209.269531 -141.519531 208.96875 -140.601562 208.15625 -139.78125 C 206.53125 -136.9375 204.898438 -135.109375 203.265625 -134.296875 C 201.640625 -133.078125 200.21875 -131.851562 199 -130.625 C 197.78125 -129.40625 196.148438 -128.390625 194.109375 -127.578125 C 175.390625 -118.628906 156.972656 -108.863281 138.859375 -98.28125 C 120.753906 -87.695312 101.9375 -79.148438 82.40625 -72.640625 C 77.113281 -71.015625 71.617188 -69.285156 65.921875 -67.453125 C 60.222656 -65.617188 54.523438 -64.296875 48.828125 -63.484375 Z M 28.6875 -61.046875 "/></g></g></g></svg>